# xmcd
#
# Track frame offsets: 
#        150
#        15264
#        31564
#        48400
#        63275
#        79690
#        97291
#        115938
#        130433
#        151739
#        169782
#        185640
#        203824
#        221696
#        240530
#        259276
#        276487
#        291960
#        310716
#
# Disc length: 4378 seconds
#
# Revision: 0
# Processed by: cddbd v1.5.2PL0 Copyright (c) Steve Scherf et al.
# Submitted via: ExactAudioCopyFreeDBPlugin 1.0
#
DISCID=0e111813
DTITLE=Mihai Constantinnescu - Best Of
DYEAR=2005
DGENRE=Pop
TTITLE0=O dimineata in culori
TTITLE1=Porumbita
TTITLE2=Fetita mea
TTITLE3=Papusa
TTITLE4=Hai sa cantam, hai sa dansam
TTITLE5=Am vrut sa fiu artista
TTITLE6=Ia-ti mireasa ziua buna
TTITLE7=Ma intorc iar in sat
TTITLE8=Te caut mereu
TTITLE9=Orice ar fi iti doresc fericire
TTITLE10=Sus in deal
TTITLE11=Iubiti si cainii vagabonzi
TTITLE12=Iubire
TTITLE13=Un zambet, o floare
TTITLE14=Simfonii in natura
TTITLE15=Vara
TTITLE16=Timpul
TTITLE17=Pentru voi
TTITLE18=Mambo
EXTD=
EXTT0=
EXTT1=
EXTT2=
EXTT3=
EXTT4=
EXTT5=
EXTT6=
EXTT7=
EXTT8=
EXTT9=
EXTT10=
EXTT11=
EXTT12=
EXTT13=
EXTT14=
EXTT15=
EXTT16=
EXTT17=
EXTT18=
PLAYORDER=
